<svg width="22" height="22" viewBox="0 0 22 22" fill="none" xmlns="http://www.w3.org/2000/svg">
    <path fill-rule="evenodd" clip-rule="evenodd" d="M20.5 11C20.5 16.2467 16.2467 20.5 11 20.5C5.75329 20.5 1.5 16.2467 1.5 11C1.5 5.75329 5.75329 1.5 11 1.5C16.2467 1.5 20.5 5.75329 20.5 11ZM22 11C22 17.0751 17.0751 22 11 22C4.92487 22 0 17.0751 0 11C0 4.92487 4.92487 0 11 0C17.0751 0 22 4.92487 22 11ZM11 14C12.6569 14 14 12.6569 14 11C14 9.34315 12.6569 8 11 8C9.34315 8 8 9.34315 8 11C8 12.6569 9.34315 14 11 14Z" fill="#5182FF"/>
</svg>
